<svg viewBox="0 0 20 20" fill="none" xmlns="http://www.w3.org/2000/svg" color="#F5F3F7" width="20px" height="20px"><path d="M13.9772 7.80055L15.0499 9.06097C15.1727 9.20254 15.2816 9.31899 15.3257 9.38521C15.6465 9.70404 15.8264 10.135 15.8261 10.584C15.796 11.1137 15.4508 11.4745 15.131 11.8604L14.3803 12.7418L13.9888 13.1984C13.9747 13.2142 13.9657 13.2336 13.9627 13.2544C13.9598 13.2752 13.9631 13.2963 13.9722 13.3153C13.9813 13.3342 13.9959 13.3501 14.014 13.361C14.0322 13.3719 14.0532 13.3773 14.0745 13.3765H17.9878C18.5856 13.3765 19.3386 13.8789 19.2946 14.6415C19.2934 14.9881 19.1531 15.3202 18.9044 15.5653C18.6557 15.8104 18.3187 15.9487 17.967 15.9499H11.8387C11.4355 15.9499 10.3512 15.9933 10.0477 15.0685C9.98311 14.8753 9.97428 14.6682 10.0222 14.4703C10.1104 14.1776 10.25 13.9025 10.4346 13.6574C10.7427 13.2007 11.0764 12.744 11.4054 12.3011C11.8294 11.7211 12.265 11.1594 12.6936 10.568C12.7088 10.5487 12.7171 10.525 12.7171 10.5006C12.7171 10.4762 12.7088 10.4525 12.6936 10.4333L11.1366 8.60658C11.1265 8.59334 11.1133 8.5826 11.0983 8.5752C11.0832 8.56781 11.0666 8.56396 11.0497 8.56396C11.0329 8.56396 11.0163 8.56781 11.0012 8.5752C10.9861 8.5826 10.973 8.59334 10.9629 8.60658C10.5458 9.16144 8.72005 11.6183 8.33081 12.1161C7.94156 12.6139 6.98235 12.6413 6.45177 12.1161L4.01666 9.70716C4.0011 9.69178 3.98126 9.6813 3.95965 9.67705C3.93805 9.6728 3.91564 9.67497 3.89529 9.68328C3.87493 9.6916 3.85754 9.70569 3.84533 9.72377C3.83311 9.74184 3.82662 9.76308 3.82667 9.7848V14.4177C3.8324 14.7465 3.73361 15.0688 3.54415 15.3395C3.35469 15.6101 3.08404 15.8156 2.77014 15.927C2.56957 15.9958 2.35522 16.0164 2.14495 15.987C1.93469 15.9575 1.73461 15.879 1.56139 15.7579C1.38818 15.6368 1.24685 15.4766 1.1492 15.2908C1.05154 15.1049 1.00039 14.8988 1 14.6895V6.35975C1.01396 6.05957 1.12356 5.77136 1.31323 5.53607C1.50289 5.30078 1.76298 5.13039 2.05653 5.0491C2.30833 4.98299 2.57338 4.98365 2.82484 5.05102C3.0763 5.11838 3.30521 5.25006 3.4884 5.43271L7.23257 9.12719C7.24378 9.13841 7.25735 9.14707 7.27233 9.15254C7.28731 9.15802 7.30332 9.16018 7.31924 9.15887C7.33516 9.15756 7.3506 9.15282 7.36445 9.14498C7.3783 9.13713 7.39023 9.12638 7.39939 9.11349L10.0592 5.48522C10.1822 5.33793 10.3363 5.2189 10.5108 5.13646C10.6853 5.05403 10.8759 5.01018 11.0694 5.008H17.9878C18.1772 5.00831 18.3642 5.04845 18.5366 5.12575C18.7089 5.20305 18.8625 5.31572 18.9871 5.45622C19.1117 5.59673 19.2044 5.76183 19.259 5.94049C19.3136 6.11914 19.3289 6.30724 19.3038 6.49219C19.2551 6.81302 19.0899 7.10554 18.839 7.31548C18.588 7.52543 18.2683 7.63855 17.9392 7.63387H14.0652C14.0458 7.63434 14.0268 7.63994 14.0103 7.65009C13.9937 7.66025 13.9803 7.67458 13.9713 7.6916C13.9623 7.70862 13.9581 7.72771 13.9591 7.74687C13.9602 7.76603 13.9664 7.78457 13.9772 7.80055Z" fill="#F5F3F7"></path></svg>