<svg width="18" height="18" viewBox="0 0 14 15" fill="none" xmlns="http://www.w3.org/2000/svg"><path fill-rule="evenodd" clip-rule="evenodd" d="M7 1.375C6.72102 1.375 6.4793 1.47589 6.28131 1.59769C6.08561 1.71808 5.90816 1.87437 5.75537 2.017C5.69699 2.0715 5.64356 2.1226 5.59265 2.17129L5.59263 2.17132C5.49929 2.2606 5.41444 2.34175 5.3232 2.42074C5.18654 2.53906 5.07881 2.61261 4.98902 2.64995C4.90087 2.68662 4.77574 2.71002 4.5983 2.72168C4.48107 2.72939 4.36821 2.73109 4.24345 2.73297C4.17165 2.73406 4.0959 2.7352 4.0131 2.73758C3.62565 2.74873 3.06043 2.78179 2.67111 3.17111C2.28115 3.56107 2.25147 4.12173 2.24165 4.5063C2.23969 4.58295 2.23874 4.65387 2.23784 4.72137L2.23784 4.72141C2.23611 4.85078 2.23456 4.9676 2.22636 5.08807C2.21436 5.26451 2.19003 5.39332 2.15037 5.48803C2.10972 5.58509 2.0335 5.69647 1.91572 5.83291C1.83509 5.92631 1.75187 6.0131 1.66035 6.10855C1.61381 6.15709 1.56513 6.20786 1.51354 6.26289C1.37185 6.41402 1.21619 6.58966 1.09636 6.78404C0.974765 6.9813 0.875 7.22162 0.875 7.5C0.875 7.77897 0.975893 8.0207 1.09769 8.21869C1.21808 8.41439 1.37437 8.59184 1.517 8.74463C1.5715 8.80301 1.62261 8.85645 1.67131 8.90736L1.67132 8.90737L1.67134 8.90739C1.76061 9.00073 1.84176 9.08556 1.92074 9.17679C2.03906 9.31346 2.11261 9.42119 2.14995 9.51098C2.18662 9.59913 2.21002 9.72426 2.22168 9.9017C2.22939 10.0189 2.23109 10.1318 2.23297 10.2565C2.23406 10.3284 2.2352 10.4041 2.23758 10.4869C2.24873 10.8744 2.28179 11.4396 2.67111 11.8289C3.06107 12.2189 3.62173 12.2485 4.0063 12.2584C4.08289 12.2603 4.15377 12.2613 4.22123 12.2622L4.22141 12.2622C4.35078 12.2639 4.4676 12.2654 4.58807 12.2736C4.76451 12.2856 4.89332 12.31 4.98803 12.3496C5.08509 12.3903 5.19647 12.4665 5.33291 12.5843C5.42631 12.6649 5.5131 12.7481 5.60855 12.8396L5.60862 12.8397C5.65714 12.8862 5.70789 12.9349 5.76289 12.9865C5.91402 13.1281 6.08966 13.2838 6.28404 13.4036C6.4813 13.5252 6.72162 13.625 7 13.625C7.27897 13.625 7.5207 13.5241 7.71869 13.4023C7.91439 13.2819 8.09184 13.1256 8.24463 12.983C8.303 12.9285 8.35643 12.8774 8.40733 12.8287L8.40737 12.8287C8.50071 12.7394 8.58556 12.6583 8.67679 12.5793C8.81346 12.4609 8.92119 12.3874 9.01098 12.35C9.09913 12.3134 9.22426 12.29 9.4017 12.2783C9.51893 12.2706 9.63179 12.2689 9.75654 12.267H9.75662C9.82841 12.2659 9.90413 12.2648 9.9869 12.2624C10.3744 12.2513 10.9396 12.2182 11.3289 11.8289C11.7189 11.4389 11.7485 10.8783 11.7584 10.4937C11.7603 10.4171 11.7613 10.3462 11.7622 10.2788L11.7622 10.2786C11.7639 10.1492 11.7654 10.0324 11.7736 9.91193C11.7856 9.73549 11.81 9.60668 11.8496 9.51197C11.8903 9.41491 11.9665 9.30353 12.0843 9.16709C12.1649 9.07369 12.2481 8.9869 12.3397 8.89145L12.3398 8.89125C12.3863 8.84278 12.4349 8.79206 12.4865 8.73711C12.6281 8.58598 12.7838 8.41034 12.9036 8.21596C13.0252 8.0187 13.125 7.77838 13.125 7.5C13.125 7.22102 13.0241 6.9793 12.9023 6.78131C12.7819 6.58561 12.6256 6.40816 12.483 6.25537C12.4286 6.19706 12.3775 6.14368 12.3289 6.09283L12.3287 6.09263L12.3287 6.09261C12.2394 5.99928 12.1582 5.91444 12.0793 5.8232C11.9609 5.68654 11.8874 5.57881 11.85 5.48902C11.8134 5.40087 11.79 5.27574 11.7783 5.0983C11.7706 4.98107 11.7689 4.86821 11.767 4.74346V4.74338C11.7659 4.67159 11.7648 4.59587 11.7624 4.5131C11.7513 4.12565 11.7182 3.56043 11.3289 3.17111C10.9389 2.78115 10.3783 2.75147 9.9937 2.74165C9.91706 2.73969 9.84614 2.73874 9.77864 2.73784L9.77859 2.73784C9.64922 2.73611 9.5324 2.73456 9.41193 2.72636C9.23549 2.71436 9.10668 2.69003 9.01197 2.65037C8.91491 2.60972 8.80353 2.5335 8.66709 2.41572C8.57369 2.33509 8.4869 2.25187 8.39145 2.16035L8.39137 2.16027C8.34285 2.11375 8.29211 2.0651 8.23711 2.01354C8.08598 1.87185 7.91034 1.71619 7.71596 1.59636C7.5187 1.47476 7.27838 1.375 7 1.375Z" fill="#2563EB"></path><path d="M9.40625 6.1875L6.19609 9.25L4.59375 7.71875" stroke="#FFFFFF" stroke-opacity="0.95" stroke-width="1.25" stroke-linecap="round" stroke-linejoin="round"></path></svg>